<?xml version="1.0" encoding="UTF-8" standalone="no"?>
<svg
   xmlns:dc="http://purl.org/dc/elements/1.1/"
   xmlns:cc="http://creativecommons.org/ns#"
   xmlns:rdf="http://www.w3.org/1999/02/22-rdf-syntax-ns#"
   xmlns:svg="http://www.w3.org/2000/svg"
   xmlns="http://www.w3.org/2000/svg"
   viewBox="0 0 595.79999 516.08002"
   height="516.08002"
   width="595.79999"
   xml:space="preserve"
   id="svg2"
   version="1.1"><metadata
     id="metadata8"><rdf:RDF><cc:Work
         rdf:about=""><dc:format>image/svg+xml</dc:format><dc:type
           rdf:resource="http://purl.org/dc/dcmitype/StillImage" /></cc:Work></rdf:RDF></metadata><defs
     id="defs6" /><g
     transform="matrix(1.3333333,0,0,-1.3333333,0,516.08)"
     id="g10"><g
       transform="scale(0.1)"
       id="g12"><path
         id="path14"
         style="fill:#9b282d;fill-opacity:1;fill-rule:nonzero;stroke:none"
         d="M 0,0 558.543,967.379 1117.01,0 Z" /><path
         id="path16"
         style="fill:#b6242a;fill-opacity:1;fill-rule:nonzero;stroke:none"
         d="M 1675.9,967.648 1117.34,0.261719 558.871,967.648 Z" /><path
         id="path18"
         style="fill:#d22027;fill-opacity:1;fill-rule:nonzero;stroke:none"
         d="M 558.543,967.648 1117.01,1935.03 1675.55,967.648 Z" /><path
         id="path20"
         style="fill:#ed1c24;fill-opacity:1;fill-rule:nonzero;stroke:none"
         d="M 2234.37,1935.31 1675.9,967.922 1117.34,1935.31 Z" /><path
         id="path22"
         style="fill:#f1471d;fill-opacity:1;fill-rule:nonzero;stroke:none"
         d="m 1117.01,1935.31 558.54,967.39 558.55,-967.39 z" /><path
         id="path24"
         style="fill:#9b282d;fill-opacity:1;fill-rule:nonzero;stroke:none"
         d="M 4468.46,0 3909.92,967.379 3351.38,0 Z" /><path
         id="path26"
         style="fill:#b6242a;fill-opacity:1;fill-rule:nonzero;stroke:none"
         d="M 2792.57,967.648 3351.11,0.261719 3909.59,967.648 Z" /><path
         id="path28"
         style="fill:#d22027;fill-opacity:1;fill-rule:nonzero;stroke:none"
         d="M 3909.92,967.648 3351.38,1935.03 2792.91,967.648 Z" /><path
         id="path30"
         style="fill:#ed1c24;fill-opacity:1;fill-rule:nonzero;stroke:none"
         d="m 2234.1,1935.31 558.47,-967.388 558.54,967.388 z" /><path
         id="path32"
         style="fill:#ed1c24;fill-opacity:1;fill-rule:nonzero;stroke:none"
         d="M 1676.16,967.379 2234.7,0 2793.24,967.379 Z" /><path
         id="path34"
         style="fill:#f1471d;fill-opacity:1;fill-rule:nonzero;stroke:none"
         d="M 3351.38,1935.31 2792.91,2902.7 2234.37,1935.31 Z" /><path
         id="path36"
         style="fill:#f58113;fill-opacity:1;fill-rule:nonzero;stroke:none"
         d="m 1676.16,2903.23 558.54,967.39 558.47,-967.39 z" /><path
         id="path38"
         style="fill:#f36518;fill-opacity:1;fill-rule:nonzero;stroke:none"
         d="M 2792.91,2902.96 2234.37,1935.57 1675.9,2902.96 Z" /></g></g></svg>